<svg width="428" height="140" viewBox="0 0 428 140" fill="none" xmlns="http://www.w3.org/2000/svg">
<path fill-rule="evenodd" clip-rule="evenodd" d="M120.403 117.382C116.886 115.257 114.065 112.282 108.345 111.818C106.297 111.624 104.519 111.701 102.896 112.591C107.302 113.209 116.307 114.368 118.278 119.239C116.964 120.321 115.611 121.363 114.22 122.368C110.974 124.649 107.495 126.659 103.785 128.36H103.746C96.403 127.47 84.3834 119.316 89.0212 110.812C94.8571 100.107 107.031 102.736 114.452 102.774C110.819 100.223 100.616 101.074 97.0986 102.002C94.4321 102.736 92.152 103.855 90.4512 105.364C89.1759 106.484 86.8183 108.61 86.2773 111.006C84.345 110.426 83.5719 109.846 81.2917 109.885C81.9098 110.503 84.9631 112.205 85.6205 112.63C85.8518 121.827 88.48 120.398 90.1034 123.953C87.1661 130.369 77.8132 129.054 71.8229 127.703C70.2768 127.315 69.7359 127.74 68.4603 127.586C66.8373 127.394 67.301 126.62 65.7164 126.581C66.2576 127.934 66.412 126.001 66.7986 127.973C64.4409 128.514 62.4313 127.394 61.9289 125.074C61.4651 122.909 63.0885 120.899 64.6728 119.896C67.4941 118.117 69.079 120.553 70.7405 120.939C71.2045 121.054 76.0355 120.281 78.1997 120.513C76.3445 118.658 73.8712 120.281 72.6732 119.277C69.6971 118.388 67.1851 115.798 66.5667 113.247C66.4508 112.706 66.3345 112.01 66.3733 111.431C66.3733 110.001 66.6439 109.924 66.6439 109.924L66.9145 109.422C66.7598 107.799 67.9191 106.986 68.3834 105.71C64.5184 107.219 64.4796 118.002 57.4457 118.891C51.1845 119.739 42.1023 118.002 41.3679 111.664C43.1459 111.2 45.4261 110.04 45.233 108.106C42.8366 109.036 42.2954 111.509 37.9284 110.659C35.8801 110.271 32.0154 108.648 31.3967 107.413C30.3918 106.948 30.9717 107.219 30.1214 106.6C27.8797 104.978 25.2133 102.195 24.2471 99.4893C24.054 99.258 23.8606 98.9857 23.6672 98.7168C23.0875 97.2094 22.5463 95.7396 22.0826 94.2333C21.1936 88.7826 23.1262 82.1355 25.5223 77.9232C35.3002 60.8405 59.3781 63.0817 68.3059 81.208C70.1224 84.9178 70.7018 87.9337 70.8955 92.4548C71.7067 91.451 71.7454 90.1373 72.0548 88.5513C75.6102 88.8612 77.5813 89.7112 81.8326 89.4024C95.8233 88.4351 112.674 79.3144 127.669 85.3041C128.829 85.7689 129.95 86.3489 131.032 87.0439C132.346 87.8175 133.699 88.8612 134.935 90.1373C135.786 90.9861 136.558 91.8749 137.254 92.7647C134.587 99.6055 130.8 106.02 125.969 111.664C124.23 113.672 122.375 115.567 120.403 117.382ZM138.452 89.2862C136.984 87.6238 135.051 85.8851 133.853 85.0351C130.916 82.9865 128.519 82.0967 124.423 81.3242C107.959 78.232 94.8959 87.0063 78.3931 86.9277C70.0062 86.8901 73.1756 84.8415 68.8084 77.0345C67.2623 74.2908 66.103 72.7834 63.8228 70.7348C58.4891 64.7053 48.0931 61.8842 39.7449 63.7391C30.8555 65.6726 24.5946 71.5461 20.5755 79.5457L19.493 81.0154C19.4543 80.938 19.4161 80.8594 19.3774 80.783C18.7203 73.9422 19.184 66.8701 20.8845 59.7968C22.8556 51.7574 26.2179 44.454 30.6624 38.0769C34.5274 33.5547 38.4309 28.9949 42.3341 24.5104C44.1893 22.3478 46.5467 21.4579 49.4456 21.8066C55.0883 22.5791 57.0979 28.0287 56.3248 31.5847C55.0883 37.1107 48.4022 39.8156 43.8028 36.4533C42.7209 35.6808 41.5998 35.1783 40.2858 35.1019C38.9334 34.947 37.6194 34.947 36.3051 35.2547C35.8801 35.4107 35.4551 35.642 34.9139 35.8745C36.7304 37.4195 38.3922 38.8892 40.1314 40.2793C45.7355 44.7639 53.9284 43.9128 58.5666 38.4642C62.5857 33.7097 62.7794 26.8688 59.0303 21.8066C54.354 15.5069 45.0011 14.6559 39.3584 20.0668C38.0059 21.3417 36.7689 22.889 35.5321 24.3178C34.3343 25.7101 33.1359 27.1001 31.9766 28.4537C30.7398 29.8836 29.503 31.3135 28.3053 32.7435L28.0734 33.0135L28.0347 33.0522C25.252 36.7621 22.7784 40.8205 20.7298 45.1501C18.8749 49.0924 17.3291 53.3046 16.2079 57.6719C13.1934 69.3425 13.3871 81.1693 16.2467 92.1847C16.4398 92.9196 16.6335 93.6523 16.8653 94.3872C24.2471 119.739 47.1654 137.866 73.5619 139.181C74.335 139.219 75.1465 139.219 75.9196 139.258C83.5719 139.373 91.3789 138.253 98.9925 135.702C101.311 134.891 103.553 134.04 105.717 133.036C107.689 132.146 109.621 131.181 111.476 130.099C121.872 124.184 130.259 115.837 136.249 106.099C138.955 101.692 141.196 97.0157 142.858 92.1449C146.993 80.0492 147.882 66.7915 144.829 53.7296C143.94 49.9811 142.742 46.2701 141.235 42.5991C137.022 32.5121 130.375 23.8552 122.181 17.0132C103.476 1.36048 76.7695 -4.62925 53.1559 3.8728C36.0345 10.096 30.4692 17.9031 18.8362 30.3861C16.6719 32.7435 14.0052 33.5547 10.8745 32.7435C6.19822 31.5072 4.53616 26.8301 5.27077 23.5453C6.54602 17.6319 13.6574 15.3896 18.0631 19.178C18.5656 19.5654 19.184 19.9129 19.8411 20.1442C21.2326 20.5692 22.7394 20.6456 24.2084 20.4917C24.9039 20.3755 25.5998 20.2593 26.1795 19.758C24.6333 18.328 23.165 16.897 21.6576 15.5833C18.1019 12.4523 14.0052 11.4872 9.48333 12.7246C5.19357 13.8833 2.02412 17.1305 0.710409 21.0717C0.169208 22.5403 -0.0629323 24.1252 0.0145401 25.7477C0.0920126 26.9474 0.28514 28.1825 0.748868 29.3812C3.37684 36.9569 11.4545 39.8156 17.9475 37.1494L18.0247 37.1107C18.9524 36.7621 19.8799 36.2994 20.6914 35.6808C21.5029 35.1783 22.2375 34.5607 22.8944 33.8259L33.3293 22.1928C35.3002 19.9904 37.5032 18.058 39.8996 16.3558C41.7932 15.0421 43.8028 13.807 45.8898 12.6858C46.3151 12.4523 47.1269 12.0284 47.6288 11.7584L47.8225 11.6422C50.1799 10.521 53.1559 9.20733 55.7067 8.3175C65.1752 5.0703 74.9146 4.14506 84.3062 5.26509L84.4606 5.30383C97.6785 6.92521 110.162 12.5696 120.056 21.4203C127.592 28.1449 133.66 36.6857 137.409 46.7339C142.742 60.8405 142.781 75.6422 138.568 89.015L138.452 89.2862ZM53.9672 116.996C55.2427 116.919 54.3153 116.958 55.4361 116.068C56.2861 115.373 56.1317 116.108 56.5567 114.947C55.3202 114.678 55.8611 114.64 54.9721 115.606C54.5471 116.03 54.2378 116.302 53.9672 116.996ZM46.7016 100.068C47.8994 99.9519 48.7887 98.7931 49.4071 97.7107C47.9382 98.1368 46.7016 98.7544 46.7016 100.068ZM36.7304 108.841C37.7738 108.571 37.5807 108.571 38.3147 108.03C39.1652 107.334 39.204 107.644 39.3196 106.291C38.0444 106.64 37.001 107.565 36.7304 108.841ZM48.9044 113.827C50.1799 113.865 50.5277 113.402 51.2233 112.784C52.2669 111.857 52.3829 112.089 52.6919 111.082C50.7595 111.895 50.412 113.441 48.4406 112.551L48.9044 113.827ZM63.1269 93.6921C64.0934 94.0784 63.2816 94.0009 64.4024 93.8072C65.2527 92.0298 63.475 89.7886 61.3877 89.9037C62.2382 90.6774 62.6244 90.2524 63.0113 91.3337C63.5134 92.6861 62.3538 92.0298 63.1269 93.6921ZM51.0301 116.378C52.3441 116.571 52.0351 116.842 52.9238 115.72C54.8949 113.286 55.204 114.446 56.2476 112.126C55.204 112.514 53.7741 112.822 52.9238 113.557C50.837 115.451 50.9527 114.755 51.0301 116.378ZM49.5615 104.513C50.7983 105.479 52.6147 104.088 53.1559 103.469C54.0447 102.503 54.5471 101.074 54.4312 99.217C53.5422 99.7992 52.8853 102.002 50.9914 103.199C49.8708 103.895 49.9093 103.469 49.5615 104.513ZM59.1849 90.5999C59.958 90.1749 59.2624 90.7161 59.8033 90.1749C61.3105 88.5513 62.7794 87.4689 64.789 90.7548C65.4071 91.7199 65.987 92.8798 65.9483 94.2333C65.9096 96.0484 65.0208 96.2034 63.5906 96.6294C63.6294 96.6294 63.9 97.9819 65.7552 96.7058C67.7647 95.3146 66.7598 91.7974 65.562 90.0199C62.8563 86.0002 59.6099 88.0876 59.0687 89.4787C58.4506 91.0249 59.1075 90.4449 59.1849 90.5999Z" fill="url(#paint0_linear_10_42)"/>
<path fill-rule="evenodd" clip-rule="evenodd" d="M157.196 69.6892V28.0654H169.1V43.5256H183.67V28.0654H195.575V69.6892H183.67V53.6114H169.1V69.6892H157.196Z" fill="#168182"/>
<path fill-rule="evenodd" clip-rule="evenodd" d="M222.087 54.5403C222.087 50.483 220.232 47.9695 217.373 47.9695C214.513 47.9695 212.697 50.483 212.697 54.5403C212.697 58.5589 214.513 61.0723 217.373 61.0723C220.232 61.0723 222.087 58.5589 222.087 54.5403ZM201.101 54.5403C201.101 45.6122 206.513 38.7725 217.373 38.7725C228.272 38.7725 233.682 45.6122 233.682 54.5403C233.682 63.4297 228.272 70.2694 217.373 70.2694C206.513 70.2694 201.101 63.4297 201.101 54.5403Z" fill="#168182"/>
<path fill-rule="evenodd" clip-rule="evenodd" d="M238.745 69.6895V55.5452C238.745 50.1343 238.745 44.7622 238.435 39.3513H249.566L250.223 43.8347H250.803C253.159 40.4326 256.445 38.7725 260.541 38.7725C264.716 38.7725 267.731 40.8974 269.431 44.7246H270.011C272.368 40.4326 276.078 38.7725 280.175 38.7725C286.243 38.7725 289.567 42.7523 289.567 49.7481V69.6895H277.971V52.9942C277.971 50.0181 276.619 48.5893 274.302 48.5893C271.557 48.5893 269.933 50.7143 269.933 54.0379V69.6895H258.338V52.9942C258.338 50.0181 256.986 48.5893 254.668 48.5893C251.923 48.5893 250.338 50.7143 250.338 54.0379V69.6895H238.745Z" fill="#168182"/>
<path fill-rule="evenodd" clip-rule="evenodd" d="M305.491 51.3717H315.385C314.766 47.8544 312.873 46.4245 310.514 46.4245C307.966 46.4245 306.148 47.9695 305.491 51.3717ZM325.897 57.0903H305.376C305.993 61.11 308.081 62.6174 310.863 62.6174C313.183 62.6174 314.613 61.4199 315.539 59.2938L325.782 61.3037C323.462 67.1395 318.902 70.2694 310.631 70.2694C299.81 70.2694 294.322 63.4297 294.322 54.5403C294.322 45.6122 299.732 38.7725 310.514 38.7725C320.602 38.7725 326.09 45.5347 326.09 53.4967C326.09 54.6942 326.013 56.1252 325.897 57.0903Z" fill="#168182"/>
<path fill-rule="evenodd" clip-rule="evenodd" d="M331.616 69.6892V28.0654H343.519V69.6892H331.616Z" fill="#E32062"/>
<path fill-rule="evenodd" clip-rule="evenodd" d="M361.994 69.6892L348.157 28.0654H360.679L369.259 58.4036H369.839L378.419 28.0654H390.709L376.873 69.6892H361.994Z" fill="#E32062"/>
<path fill-rule="evenodd" clip-rule="evenodd" d="M395.347 69.6892V28.0654H427.192V37.5735H407.251V45.4967H425.376V54.115H407.251V69.6892H395.347Z" fill="#E32062"/>
<path fill-rule="evenodd" clip-rule="evenodd" d="M166.743 99.9519C171.419 99.9519 173.777 97.7495 173.777 94.116C173.777 91.3337 172.424 89.6713 169.989 88.8988V88.7439C171.651 88.0488 172.849 86.464 172.849 83.9528C172.849 79.9707 170.066 78.1943 165.97 78.1943H157.621V99.9519H166.743ZM160.404 80.6281H165.892C168.636 80.6281 170.066 81.9429 170.066 84.1841C170.066 86.464 168.636 87.74 165.892 87.74H160.404V80.6281ZM160.404 90.0974H166.588C169.409 90.0974 170.994 91.4499 170.994 93.846C170.994 96.2421 169.409 97.5182 166.588 97.5182H160.404V90.0974Z" fill="#168182"/>
<path fill-rule="evenodd" clip-rule="evenodd" d="M185.526 83.7974C183.323 83.7974 181.584 84.9561 180.617 87.1973H180.464L180.076 84.1073H177.41C177.603 86.9273 177.603 89.7484 177.603 92.5695V99.9515H180.386V92.6857C180.386 87.9709 183.092 86.4248 185.565 86.4248C186.029 86.4248 186.26 86.4248 186.763 86.4646V83.835C186.222 83.7974 185.951 83.7974 185.526 83.7974Z" fill="#168182"/>
<path fill-rule="evenodd" clip-rule="evenodd" d="M191.13 81.9411C192.289 81.9411 193.178 81.0524 193.178 79.8936C193.178 78.7349 192.289 77.8838 191.13 77.8838C189.932 77.8838 189.004 78.7349 189.004 79.8936C189.004 81.0524 189.932 81.9411 191.13 81.9411ZM192.522 99.9513V84.1048H189.7V99.9513H192.522Z" fill="#168182"/>
<path fill-rule="evenodd" clip-rule="evenodd" d="M199.672 99.9515V91.2557C199.672 88.4734 201.566 86.2698 204.387 86.2698C206.822 86.2698 208.213 87.7783 208.213 90.792V99.9515H211.034V90.6382C211.034 85.9622 208.793 83.7974 205.121 83.7974C202.957 83.7974 200.986 84.841 199.865 86.7347H199.672L199.362 84.1073H196.696C196.851 86.9273 196.851 89.7484 196.851 92.5695V99.9515H199.672Z" fill="#168182"/>
<path fill-rule="evenodd" clip-rule="evenodd" d="M222.32 106.485C226.803 106.485 229.354 103.932 229.354 100.069V92.2618C229.354 89.517 229.354 86.9272 229.508 84.1073H226.88L226.571 86.7347H226.339C225.257 84.8798 223.517 83.7974 221.121 83.7974C217.063 83.7974 214.435 86.966 214.435 91.7206C214.435 96.473 217.063 99.6438 221.121 99.6438C223.557 99.6438 225.257 98.5614 226.339 96.7054H226.571V99.9902C226.571 102.734 224.91 104.165 222.32 104.165C219.885 104.165 218.261 103.199 217.604 101.265L215.054 102.193C216.02 104.937 218.726 106.485 222.32 106.485ZM221.895 97.1691C219.035 97.1691 217.218 94.9279 217.218 91.7206C217.218 88.511 219.035 86.2698 221.895 86.2698C224.755 86.2698 226.571 88.4734 226.571 91.6818C226.571 94.8892 224.755 97.1691 221.895 97.1691Z" fill="#168182"/>
<path fill-rule="evenodd" clip-rule="evenodd" d="M235.112 81.9411C236.31 81.9411 237.199 81.0524 237.199 79.8936C237.199 78.7349 236.31 77.8838 235.112 77.8838C233.952 77.8838 232.987 78.7349 232.987 79.8936C232.987 81.0524 233.952 81.9411 235.112 81.9411ZM236.503 99.9513V84.1048H233.72V99.9513H236.503Z" fill="#168182"/>
<path fill-rule="evenodd" clip-rule="evenodd" d="M243.653 99.9515V91.2557C243.653 88.4734 245.586 86.2698 248.408 86.2698C250.843 86.2698 252.233 87.7783 252.233 90.792V99.9515H255.016V90.6382C255.016 85.9622 252.774 83.7974 249.141 83.7974C246.978 83.7974 245.006 84.841 243.886 86.7347H243.653L243.345 84.1073H240.716C240.871 86.9273 240.871 89.7484 240.871 92.5695V99.9515H243.653Z" fill="#168182"/>
<path fill-rule="evenodd" clip-rule="evenodd" d="M266.301 106.485C270.822 106.485 273.373 103.932 273.373 100.069V92.2618C273.373 89.517 273.373 86.9272 273.528 84.1073H270.899L270.552 86.7347H270.359C269.277 84.8798 267.538 83.7974 265.142 83.7974C261.084 83.7974 258.455 86.966 258.455 91.7206C258.455 96.473 261.084 99.6438 265.142 99.6438C267.538 99.6438 269.277 98.5614 270.359 96.7054H270.552V99.9902C270.552 102.734 268.928 104.165 266.301 104.165C263.866 104.165 262.28 103.199 261.625 101.265L259.074 102.193C260.04 104.937 262.745 106.485 266.301 106.485ZM265.915 97.1691C263.054 97.1691 261.238 94.9279 261.238 91.7206C261.238 88.511 263.054 86.2698 265.915 86.2698C268.773 86.2698 270.552 88.4734 270.552 91.6818C270.552 94.8892 268.773 97.1691 265.915 97.1691Z" fill="#168182"/>
<path fill-rule="evenodd" clip-rule="evenodd" d="M299.384 99.9519V97.4794H288.368V78.1943H285.547V99.9519H299.384Z" fill="#168182"/>
<path fill-rule="evenodd" clip-rule="evenodd" d="M303.866 81.9411C305.065 81.9411 305.955 81.0524 305.955 79.8936C305.955 78.7349 305.065 77.8838 303.866 77.8838C302.707 77.8838 301.78 78.7349 301.78 79.8936C301.78 81.0524 302.707 81.9411 303.866 81.9411ZM305.296 99.9513V84.1048H302.476V99.9513H305.296Z" fill="#168182"/>
<path fill-rule="evenodd" clip-rule="evenodd" d="M314.303 99.9513V86.4246H318.824V84.1048H314.303V82.7147C314.303 80.9362 315.385 80.2013 316.583 80.2013C317.316 80.2013 318.014 80.3186 318.902 80.8598L319.791 78.9275C318.709 78.1937 317.589 77.8838 316.12 77.8838C313.375 77.8838 311.482 79.6225 311.482 82.5211V84.1048H308.389V86.4246H311.482V99.9513H314.303Z" fill="#168182"/>
<path fill-rule="evenodd" clip-rule="evenodd" d="M335.365 91.642C335.365 86.6959 332.504 83.7974 328.331 83.7974C323.577 83.7974 320.717 87.3921 320.717 92.0283C320.717 96.6655 323.616 100.261 328.37 100.261C331.462 100.261 333.78 98.9089 334.902 96.2029L332.428 95.3142C331.501 97.1691 330.148 97.9416 328.37 97.9416C325.664 97.9416 323.886 96.0092 323.577 92.9956H335.249C335.325 92.6093 335.365 92.1057 335.365 91.642ZM328.331 86.116C330.727 86.116 332.428 87.8171 332.659 90.7544H323.616C324.002 87.8934 325.741 86.116 328.331 86.116Z" fill="#168182"/>
<path fill-rule="evenodd" clip-rule="evenodd" d="M349.551 99.9519V90.1738H360.913V99.9519H363.733V78.1943H360.913V87.6626H349.551V78.1943H346.767V99.9519H349.551Z" fill="#168182"/>
<path fill-rule="evenodd" clip-rule="evenodd" d="M375.134 100.261C379.849 100.261 382.747 96.6655 382.747 92.0283C382.747 87.3921 379.849 83.7974 375.134 83.7974C370.419 83.7974 367.521 87.3921 367.521 92.0283C367.521 96.6655 370.419 100.261 375.134 100.261ZM375.134 97.7878C372.234 97.7878 370.303 95.5068 370.303 92.0283C370.303 88.5509 372.234 86.2698 375.134 86.2698C378.034 86.2698 379.965 88.5509 379.965 92.0283C379.965 95.5068 378.034 97.7878 375.134 97.7878Z" fill="#168182"/>
<path fill-rule="evenodd" clip-rule="evenodd" d="M389.125 99.9515V90.9093C389.125 88.2421 390.825 86.2698 393.259 86.2698C395.385 86.2698 396.584 87.7385 396.584 90.522V99.9515H399.405V90.9093C399.405 88.2421 401.106 86.2698 403.541 86.2698C405.627 86.2698 406.865 87.7385 406.865 90.522V99.9515H409.647V90.1733C409.647 85.8072 407.676 83.7974 404.314 83.7974C402.034 83.7974 400.179 84.9174 399.134 86.8896H398.903C398.052 84.8012 396.507 83.7974 394.072 83.7974C392.139 83.7974 390.323 84.7624 389.318 86.5797H389.086L388.815 84.1073H386.187C386.342 86.9273 386.342 89.7484 386.342 92.5695V99.9515H389.125Z" fill="#168182"/>
<path fill-rule="evenodd" clip-rule="evenodd" d="M427.694 91.642C427.694 86.6959 424.834 83.7974 420.66 83.7974C415.944 83.7974 413.086 87.3921 413.086 92.0283C413.086 96.6655 415.944 100.261 420.699 100.261C423.791 100.261 426.147 98.9089 427.27 96.2029L424.756 95.3142C423.83 97.1691 422.476 97.9416 420.699 97.9416C418.032 97.9416 416.216 96.0092 415.944 92.9956H427.577C427.656 92.6093 427.694 92.1057 427.694 91.642ZM420.66 86.116C423.056 86.116 424.756 87.8171 425.027 90.7544H415.944C416.331 87.8934 418.07 86.116 420.66 86.116Z" fill="#168182"/>
<defs>
<linearGradient id="paint0_linear_10_42" x1="56.3542" y1="137.503" x2="56.3542" y2="1.73538" gradientUnits="userSpaceOnUse">
<stop offset="1" stop-color="#88B84A"/>
<stop stop-color="#3FA1C8"/>
</linearGradient>
</defs>
</svg>
